<svg width="98" height="50" viewBox="0 0 98 50" fill="none" xmlns="http://www.w3.org/2000/svg">
<path d="M23.018 9.56L15.062 32H8.194L0.204 9.56H6.358L10.472 23.126L11.696 27.546L12.886 23.194L17.068 9.56H23.018ZM28.173 13.028C26.9943 13.028 26.133 12.8127 25.589 12.382C25.0677 11.9287 24.807 11.226 24.807 10.274C24.807 9.29933 25.0677 8.59667 25.589 8.166C26.133 7.71267 26.9943 7.486 28.173 7.486C29.329 7.486 30.179 7.71267 30.723 8.166C31.267 8.59667 31.539 9.29933 31.539 10.274C31.539 11.226 31.267 11.9287 30.723 12.382C30.179 12.8127 29.329 13.028 28.173 13.028ZM31.063 15V32H25.283V15H31.063ZM47.3495 15V19.114H42.2835V25.948C42.2835 26.764 42.4762 27.3533 42.8615 27.716C43.2695 28.056 43.8248 28.226 44.5275 28.226C45.0715 28.226 45.5362 28.1693 45.9215 28.056C46.3068 27.92 46.6695 27.7273 47.0095 27.478L47.6215 31.048C47.0548 31.4333 46.3295 31.7507 45.4455 32C44.5842 32.2267 43.7115 32.34 42.8275 32.34C40.8782 32.34 39.3368 31.932 38.2035 31.116C37.0928 30.2773 36.5262 28.872 36.5035 26.9V19.114H33.5795V15H36.5035V11.192L42.2835 9.594V15H47.3495ZM59.7709 21.222C59.7709 20.4287 59.5443 19.8053 59.0909 19.352C58.6603 18.876 58.0709 18.638 57.3229 18.638C56.5749 18.638 55.9289 18.8307 55.3849 19.216C54.8636 19.5787 54.5009 20.236 54.2969 21.188L49.4009 20.032C49.7183 18.4 50.5569 17.0967 51.9169 16.122C53.2769 15.1473 55.1923 14.66 57.6629 14.66C60.1563 14.66 62.0829 15.2153 63.4429 16.326C64.8256 17.414 65.5169 19.012 65.5169 21.12V27.342C65.5169 28.226 65.9136 28.668 66.7069 28.668C67.1149 28.668 67.4436 28.6227 67.6929 28.532L67.3529 31.83C66.6729 32.1473 65.8456 32.306 64.8709 32.306C63.8056 32.306 62.8876 32.102 62.1169 31.694C61.3463 31.2633 60.8249 30.6173 60.5529 29.756C60.0769 30.64 59.3176 31.2973 58.2749 31.728C57.2549 32.136 56.1669 32.34 55.0109 32.34C53.2656 32.34 51.8716 31.9433 50.8289 31.15C49.8089 30.334 49.2989 29.1667 49.2989 27.648C49.2989 26.424 49.6616 25.4153 50.3869 24.622C51.1349 23.806 52.3023 23.2393 53.8889 22.922L59.7709 21.698V21.222ZM55.0109 27.104C55.0109 27.6027 55.1923 27.9767 55.5549 28.226C55.9176 28.4753 56.3483 28.6 56.8469 28.6C57.6176 28.6 58.2976 28.3733 58.8869 27.92C59.4763 27.444 59.7709 26.7073 59.7709 25.71V24.758L57.0169 25.336C56.3369 25.472 55.8269 25.676 55.4869 25.948C55.1696 26.1973 55.0109 26.5827 55.0109 27.104ZM75.6864 7.792V26.22C75.6864 26.968 75.8111 27.5007 76.0604 27.818C76.3097 28.1353 76.7291 28.294 77.3184 28.294C77.6584 28.294 77.9417 28.2713 78.1684 28.226C78.3951 28.1807 78.6671 28.1127 78.9844 28.022L78.6104 31.49C78.2024 31.7393 77.6697 31.9433 77.0124 32.102C76.3551 32.2607 75.7091 32.34 75.0744 32.34C73.2611 32.34 71.9464 31.9207 71.1304 31.082C70.3144 30.2433 69.9064 28.872 69.9064 26.968V7.792H75.6864ZM88.2374 32.34C86.5374 32.34 84.9621 32.068 83.5114 31.524C82.0608 30.9573 80.8481 30.1527 79.8734 29.11L82.5934 25.914C83.1601 26.6393 83.9081 27.2513 84.8374 27.75C85.7894 28.226 86.8434 28.464 87.9994 28.464C88.7021 28.464 89.2801 28.362 89.7334 28.158C90.1868 27.954 90.4134 27.6367 90.4134 27.206C90.4134 26.9113 90.3001 26.662 90.0734 26.458C89.8468 26.254 89.3934 26.084 88.7134 25.948L86.3334 25.472C84.2028 25.0413 82.6841 24.4067 81.7774 23.568C80.8934 22.7067 80.4514 21.5847 80.4514 20.202C80.4514 19.2727 80.7348 18.3887 81.3014 17.55C81.8681 16.7113 82.7408 16.02 83.9194 15.476C85.0981 14.932 86.6054 14.66 88.4414 14.66C91.9548 14.66 94.5161 15.6347 96.1254 17.584L93.3714 20.712C92.8274 20.032 92.1248 19.4993 91.2634 19.114C90.4021 18.7287 89.5408 18.536 88.6794 18.536C87.0248 18.536 86.1974 18.9553 86.1974 19.794C86.1974 20.0887 86.3334 20.3493 86.6054 20.576C86.9001 20.8027 87.4328 20.984 88.2034 21.12L91.2974 21.732C93.0428 22.072 94.3008 22.6613 95.0714 23.5C95.8421 24.316 96.2274 25.3133 96.2274 26.492C96.2274 28.1467 95.5588 29.5407 94.2214 30.674C92.9068 31.7847 90.9121 32.34 88.2374 32.34Z" fill="#0C2A4E"/>
<line y1="48" x2="45" y2="48" stroke="#EC2755" stroke-width="4"/>
</svg>
